<mxfile host="app.diagrams.net" agent="Mozilla/5.0 (Windows NT 10.0; Win64; x64) AppleWebKit/537.36 (KHTML, like Gecko) Chrome/133.0.0.0 Safari/537.36" version="26.0.16">
  <diagram id="IAWx1fr4JjzV1SWlqMux" name="Page-1">
    <mxGraphModel dx="862" dy="422" grid="0" gridSize="10" guides="1" tooltips="1" connect="1" arrows="1" fold="1" page="1" pageScale="1" pageWidth="827" pageHeight="1169" math="0" shadow="0">
      <root>
        <mxCell id="0" />
        <mxCell id="1" parent="0" />
        <mxCell id="bLHYIjg8J8-4rdijZC2Z-12" value="" style="rounded=0;whiteSpace=wrap;html=1;fillColor=#eeeeee;dashed=1;strokeColor=#36393d;" vertex="1" parent="1">
          <mxGeometry x="892" y="100" width="260" height="500" as="geometry" />
        </mxCell>
        <mxCell id="_-cmMSH2O4cLz9NhAA3f-113" value="" style="rounded=0;whiteSpace=wrap;html=1;fillColor=#eeeeee;dashed=1;strokeColor=#36393d;" parent="1" vertex="1">
          <mxGeometry x="642" y="100" width="200" height="500" as="geometry" />
        </mxCell>
        <mxCell id="_-cmMSH2O4cLz9NhAA3f-242" value="" style="rounded=0;whiteSpace=wrap;html=1;fontFamily=Helvetica;fontSize=11;labelBackgroundColor=default;fillColor=#d5e8d4;strokeColor=#82b366;" parent="1" vertex="1">
          <mxGeometry x="1582" y="161.25" width="94" height="431.51" as="geometry" />
        </mxCell>
        <mxCell id="_-cmMSH2O4cLz9NhAA3f-216" value="" style="rounded=0;whiteSpace=wrap;html=1;fillColor=#eeeeee;dashed=1;strokeColor=#36393d;" parent="1" vertex="1">
          <mxGeometry x="1200" y="100" width="100" height="500" as="geometry" />
        </mxCell>
        <mxCell id="_-cmMSH2O4cLz9NhAA3f-64" value="" style="rounded=0;whiteSpace=wrap;html=1;fillColor=#eeeeee;dashed=1;strokeColor=#36393d;" parent="1" vertex="1">
          <mxGeometry x="332" y="100" width="260" height="500" as="geometry" />
        </mxCell>
        <mxCell id="_-cmMSH2O4cLz9NhAA3f-4" value="" style="rounded=0;whiteSpace=wrap;html=1;fillColor=#eeeeee;dashed=1;strokeColor=#36393d;" parent="1" vertex="1">
          <mxGeometry x="142" y="100" width="130" height="500" as="geometry" />
        </mxCell>
        <mxCell id="_-cmMSH2O4cLz9NhAA3f-68" style="edgeStyle=orthogonalEdgeStyle;rounded=0;orthogonalLoop=1;jettySize=auto;html=1;exitX=1;exitY=0.5;exitDx=0;exitDy=0;entryX=0;entryY=0.5;entryDx=0;entryDy=0;" parent="1" source="_-cmMSH2O4cLz9NhAA3f-2" target="_-cmMSH2O4cLz9NhAA3f-67" edge="1">
          <mxGeometry relative="1" as="geometry" />
        </mxCell>
        <mxCell id="_-cmMSH2O4cLz9NhAA3f-2" value="&lt;font face=&quot;Times New Roman&quot;&gt;L环境特征&lt;/font&gt;" style="text;html=1;align=center;verticalAlign=middle;whiteSpace=wrap;rounded=0;shadow=0;" parent="1" vertex="1">
          <mxGeometry x="152" y="550" width="100" height="30" as="geometry" />
        </mxCell>
        <mxCell id="_-cmMSH2O4cLz9NhAA3f-56" style="edgeStyle=orthogonalEdgeStyle;rounded=0;orthogonalLoop=1;jettySize=auto;html=1;exitX=1;exitY=0.5;exitDx=0;exitDy=0;entryX=0;entryY=0.5;entryDx=0;entryDy=0;" parent="1" source="_-cmMSH2O4cLz9NhAA3f-164" target="_-cmMSH2O4cLz9NhAA3f-55" edge="1">
          <mxGeometry relative="1" as="geometry">
            <mxPoint x="362" y="285.5" as="sourcePoint" />
          </mxGeometry>
        </mxCell>
        <mxCell id="_-cmMSH2O4cLz9NhAA3f-60" style="edgeStyle=orthogonalEdgeStyle;rounded=0;orthogonalLoop=1;jettySize=auto;html=1;exitX=1;exitY=0.5;exitDx=0;exitDy=0;entryX=0;entryY=0.5;entryDx=0;entryDy=0;" parent="1" source="_-cmMSH2O4cLz9NhAA3f-167" target="_-cmMSH2O4cLz9NhAA3f-58" edge="1">
          <mxGeometry relative="1" as="geometry">
            <mxPoint x="361.75" y="378" as="sourcePoint" />
          </mxGeometry>
        </mxCell>
        <mxCell id="_-cmMSH2O4cLz9NhAA3f-169" style="edgeStyle=none;shape=connector;rounded=0;orthogonalLoop=1;jettySize=auto;html=1;exitX=1;exitY=0.5;exitDx=0;exitDy=0;entryX=0;entryY=0.5;entryDx=0;entryDy=0;strokeColor=default;align=center;verticalAlign=middle;fontFamily=Helvetica;fontSize=11;fontColor=default;labelBackgroundColor=default;startFill=0;endArrow=classicThin;endFill=1;" parent="1" source="_-cmMSH2O4cLz9NhAA3f-14" target="_-cmMSH2O4cLz9NhAA3f-164" edge="1">
          <mxGeometry relative="1" as="geometry" />
        </mxCell>
        <mxCell id="_-cmMSH2O4cLz9NhAA3f-14" value="&lt;div&gt;&lt;span style=&quot;font-family: &amp;quot;Times New Roman&amp;quot;; background-color: transparent; color: light-dark(rgb(0, 0, 0), rgb(255, 255, 255));&quot;&gt;x&lt;/span&gt;&lt;sub style=&quot;font-family: &amp;quot;Times New Roman&amp;quot;; background-color: transparent; color: light-dark(rgb(0, 0, 0), rgb(255, 255, 255));&quot;&gt;2&lt;/sub&gt;&lt;span style=&quot;font-family: &amp;quot;Times New Roman&amp;quot;; background-color: transparent; color: light-dark(rgb(0, 0, 0), rgb(255, 255, 255));&quot;&gt;个体的认知特征&lt;/span&gt;&lt;/div&gt;" style="text;html=1;align=center;verticalAlign=middle;whiteSpace=wrap;rounded=0;" parent="1" vertex="1">
          <mxGeometry x="152" y="270" width="100" height="30" as="geometry" />
        </mxCell>
        <mxCell id="_-cmMSH2O4cLz9NhAA3f-172" style="edgeStyle=none;shape=connector;rounded=0;orthogonalLoop=1;jettySize=auto;html=1;exitX=1;exitY=0.5;exitDx=0;exitDy=0;entryX=0;entryY=0.5;entryDx=0;entryDy=0;strokeColor=default;align=center;verticalAlign=middle;fontFamily=Helvetica;fontSize=11;fontColor=default;labelBackgroundColor=default;startFill=0;endArrow=classicThin;endFill=1;" parent="1" source="_-cmMSH2O4cLz9NhAA3f-16" target="_-cmMSH2O4cLz9NhAA3f-167" edge="1">
          <mxGeometry relative="1" as="geometry" />
        </mxCell>
        <mxCell id="_-cmMSH2O4cLz9NhAA3f-16" value="&lt;div&gt;&lt;span style=&quot;font-family: &amp;quot;Times New Roman&amp;quot;; background-color: transparent; color: light-dark(rgb(0, 0, 0), rgb(255, 255, 255));&quot;&gt;x&lt;/span&gt;&lt;sub style=&quot;font-family: &amp;quot;Times New Roman&amp;quot;; background-color: transparent; color: light-dark(rgb(0, 0, 0), rgb(255, 255, 255));&quot;&gt;3&lt;/sub&gt;&lt;span style=&quot;font-family: &amp;quot;Times New Roman&amp;quot;; background-color: transparent; color: light-dark(rgb(0, 0, 0), rgb(255, 255, 255));&quot;&gt;个体的心理特征&lt;/span&gt;&lt;/div&gt;" style="text;html=1;align=center;verticalAlign=middle;whiteSpace=wrap;rounded=0;" parent="1" vertex="1">
          <mxGeometry x="152" y="360" width="100" height="30" as="geometry" />
        </mxCell>
        <mxCell id="_-cmMSH2O4cLz9NhAA3f-62" style="edgeStyle=orthogonalEdgeStyle;rounded=0;orthogonalLoop=1;jettySize=auto;html=1;exitX=1;exitY=0.5;exitDx=0;exitDy=0;entryX=0;entryY=0.5;entryDx=0;entryDy=0;" parent="1" source="_-cmMSH2O4cLz9NhAA3f-168" target="_-cmMSH2O4cLz9NhAA3f-59" edge="1">
          <mxGeometry relative="1" as="geometry">
            <mxPoint x="361.75" y="492" as="sourcePoint" />
          </mxGeometry>
        </mxCell>
        <mxCell id="_-cmMSH2O4cLz9NhAA3f-173" style="edgeStyle=none;shape=connector;rounded=0;orthogonalLoop=1;jettySize=auto;html=1;exitX=1;exitY=0.5;exitDx=0;exitDy=0;entryX=0;entryY=0.5;entryDx=0;entryDy=0;strokeColor=default;align=center;verticalAlign=middle;fontFamily=Helvetica;fontSize=11;fontColor=default;labelBackgroundColor=default;startFill=0;endArrow=classicThin;endFill=1;" parent="1" source="_-cmMSH2O4cLz9NhAA3f-22" target="_-cmMSH2O4cLz9NhAA3f-168" edge="1">
          <mxGeometry relative="1" as="geometry" />
        </mxCell>
        <mxCell id="_-cmMSH2O4cLz9NhAA3f-22" value="&lt;div&gt;&lt;span style=&quot;font-family: &amp;quot;Times New Roman&amp;quot;; background-color: transparent; color: light-dark(rgb(0, 0, 0), rgb(255, 255, 255));&quot;&gt;x&lt;/span&gt;&lt;sub style=&quot;font-family: &amp;quot;Times New Roman&amp;quot;; background-color: transparent; color: light-dark(rgb(0, 0, 0), rgb(255, 255, 255));&quot;&gt;n&lt;/sub&gt;&lt;span style=&quot;font-family: &amp;quot;Times New Roman&amp;quot;; background-color: transparent; color: light-dark(rgb(0, 0, 0), rgb(255, 255, 255));&quot;&gt;群体的行为特征&lt;/span&gt;&lt;/div&gt;" style="text;html=1;align=center;verticalAlign=middle;whiteSpace=wrap;rounded=0;" parent="1" vertex="1">
          <mxGeometry x="152" y="480" width="100" height="30" as="geometry" />
        </mxCell>
        <mxCell id="_-cmMSH2O4cLz9NhAA3f-23" value="&lt;div style=&quot;line-height: 20%;&quot;&gt;&lt;font style=&quot;font-size: 30px; line-height: 20%;&quot;&gt;.&lt;/font&gt;&lt;div&gt;&lt;font style=&quot;font-size: 30px; line-height: 20%;&quot;&gt;.&lt;/font&gt;&lt;/div&gt;&lt;div&gt;&lt;font style=&quot;font-size: 30px; line-height: 20%;&quot;&gt;.&lt;/font&gt;&lt;/div&gt;&lt;/div&gt;" style="text;html=1;align=center;verticalAlign=middle;whiteSpace=wrap;rounded=0;" parent="1" vertex="1">
          <mxGeometry x="337" y="420" width="60" height="30" as="geometry" />
        </mxCell>
        <mxCell id="_-cmMSH2O4cLz9NhAA3f-24" value="&lt;div style=&quot;line-height: 20%;&quot;&gt;&lt;font style=&quot;font-size: 30px; line-height: 20%;&quot;&gt;.&lt;/font&gt;&lt;div&gt;&lt;font style=&quot;font-size: 30px; line-height: 20%;&quot;&gt;.&lt;/font&gt;&lt;/div&gt;&lt;div&gt;&lt;font style=&quot;font-size: 30px; line-height: 20%;&quot;&gt;.&lt;/font&gt;&lt;/div&gt;&lt;/div&gt;" style="text;html=1;align=center;verticalAlign=middle;whiteSpace=wrap;rounded=0;" parent="1" vertex="1">
          <mxGeometry x="172" y="420" width="60" height="30" as="geometry" />
        </mxCell>
        <mxCell id="_-cmMSH2O4cLz9NhAA3f-86" style="edgeStyle=none;shape=connector;rounded=0;orthogonalLoop=1;jettySize=auto;html=1;exitX=1;exitY=0.5;exitDx=0;exitDy=0;entryX=0;entryY=0.5;entryDx=0;entryDy=0;strokeColor=default;align=center;verticalAlign=middle;fontFamily=Helvetica;fontSize=11;fontColor=default;labelBackgroundColor=default;startFill=0;endArrow=classicThin;endFill=1;" parent="1" target="_-cmMSH2O4cLz9NhAA3f-72" edge="1" source="tCSOFyDIzmeTxJanoV6C-38">
          <mxGeometry relative="1" as="geometry">
            <mxPoint x="811" y="188" as="sourcePoint" />
          </mxGeometry>
        </mxCell>
        <mxCell id="_-cmMSH2O4cLz9NhAA3f-87" style="edgeStyle=none;shape=connector;rounded=0;orthogonalLoop=1;jettySize=auto;html=1;exitX=1;exitY=0.5;exitDx=0;exitDy=0;entryX=0;entryY=0.5;entryDx=0;entryDy=0;strokeColor=default;align=center;verticalAlign=middle;fontFamily=Helvetica;fontSize=11;fontColor=default;labelBackgroundColor=default;startFill=0;endArrow=classicThin;endFill=1;" parent="1" target="_-cmMSH2O4cLz9NhAA3f-73" edge="1" source="tCSOFyDIzmeTxJanoV6C-38">
          <mxGeometry relative="1" as="geometry">
            <mxPoint x="811" y="188" as="sourcePoint" />
          </mxGeometry>
        </mxCell>
        <mxCell id="_-cmMSH2O4cLz9NhAA3f-96" style="edgeStyle=none;shape=connector;rounded=0;orthogonalLoop=1;jettySize=auto;html=1;exitX=1;exitY=0.5;exitDx=0;exitDy=0;entryX=0;entryY=0.5;entryDx=0;entryDy=0;strokeColor=default;align=center;verticalAlign=middle;fontFamily=Helvetica;fontSize=11;fontColor=default;labelBackgroundColor=default;startFill=0;endArrow=classicThin;endFill=1;" parent="1" source="_-cmMSH2O4cLz9NhAA3f-48" target="_-cmMSH2O4cLz9NhAA3f-72" edge="1">
          <mxGeometry relative="1" as="geometry" />
        </mxCell>
        <mxCell id="_-cmMSH2O4cLz9NhAA3f-97" style="edgeStyle=none;shape=connector;rounded=0;orthogonalLoop=1;jettySize=auto;html=1;exitX=1;exitY=0.5;exitDx=0;exitDy=0;entryX=0;entryY=0.5;entryDx=0;entryDy=0;strokeColor=default;align=center;verticalAlign=middle;fontFamily=Helvetica;fontSize=11;fontColor=default;labelBackgroundColor=default;startFill=0;endArrow=classicThin;endFill=1;" parent="1" source="_-cmMSH2O4cLz9NhAA3f-48" target="_-cmMSH2O4cLz9NhAA3f-73" edge="1">
          <mxGeometry relative="1" as="geometry" />
        </mxCell>
        <mxCell id="_-cmMSH2O4cLz9NhAA3f-98" style="edgeStyle=none;shape=connector;rounded=0;orthogonalLoop=1;jettySize=auto;html=1;exitX=1;exitY=0.5;exitDx=0;exitDy=0;entryX=0;entryY=0.5;entryDx=0;entryDy=0;strokeColor=default;align=center;verticalAlign=middle;fontFamily=Helvetica;fontSize=11;fontColor=default;labelBackgroundColor=default;startFill=0;endArrow=classicThin;endFill=1;" parent="1" source="_-cmMSH2O4cLz9NhAA3f-48" target="_-cmMSH2O4cLz9NhAA3f-74" edge="1">
          <mxGeometry relative="1" as="geometry" />
        </mxCell>
        <mxCell id="_-cmMSH2O4cLz9NhAA3f-48" value="&lt;span style=&quot;font-family: &amp;quot;Times New Roman&amp;quot;; font-size: 10px;&quot;&gt;V(1,2...t)&lt;sup&gt;2&lt;/sup&gt;&lt;/span&gt;" style="ellipse;whiteSpace=wrap;html=1;aspect=fixed;" parent="1" vertex="1">
          <mxGeometry x="652" y="260" width="50" height="50" as="geometry" />
        </mxCell>
        <mxCell id="_-cmMSH2O4cLz9NhAA3f-99" style="edgeStyle=none;shape=connector;rounded=0;orthogonalLoop=1;jettySize=auto;html=1;exitX=1;exitY=0.5;exitDx=0;exitDy=0;entryX=0;entryY=0.5;entryDx=0;entryDy=0;strokeColor=default;align=center;verticalAlign=middle;fontFamily=Helvetica;fontSize=11;fontColor=default;labelBackgroundColor=default;startFill=0;endArrow=classicThin;endFill=1;" parent="1" source="_-cmMSH2O4cLz9NhAA3f-49" target="_-cmMSH2O4cLz9NhAA3f-73" edge="1">
          <mxGeometry relative="1" as="geometry" />
        </mxCell>
        <mxCell id="_-cmMSH2O4cLz9NhAA3f-100" style="edgeStyle=none;shape=connector;rounded=0;orthogonalLoop=1;jettySize=auto;html=1;exitX=1;exitY=0.5;exitDx=0;exitDy=0;entryX=0;entryY=0.5;entryDx=0;entryDy=0;strokeColor=default;align=center;verticalAlign=middle;fontFamily=Helvetica;fontSize=11;fontColor=default;labelBackgroundColor=default;startFill=0;endArrow=classicThin;endFill=1;" parent="1" source="_-cmMSH2O4cLz9NhAA3f-49" target="_-cmMSH2O4cLz9NhAA3f-74" edge="1">
          <mxGeometry relative="1" as="geometry" />
        </mxCell>
        <mxCell id="_-cmMSH2O4cLz9NhAA3f-101" style="edgeStyle=none;shape=connector;rounded=0;orthogonalLoop=1;jettySize=auto;html=1;exitX=1;exitY=0.5;exitDx=0;exitDy=0;entryX=0;entryY=0.5;entryDx=0;entryDy=0;strokeColor=default;align=center;verticalAlign=middle;fontFamily=Helvetica;fontSize=11;fontColor=default;labelBackgroundColor=default;startFill=0;endArrow=classicThin;endFill=1;" parent="1" source="_-cmMSH2O4cLz9NhAA3f-49" target="_-cmMSH2O4cLz9NhAA3f-75" edge="1">
          <mxGeometry relative="1" as="geometry" />
        </mxCell>
        <mxCell id="_-cmMSH2O4cLz9NhAA3f-49" value="&lt;span style=&quot;font-family: &amp;quot;Times New Roman&amp;quot;; font-size: 10px;&quot;&gt;V(1,2...t)&lt;/span&gt;&lt;span style=&quot;font-family: &amp;quot;Times New Roman&amp;quot;;&quot;&gt;&lt;sup style=&quot;&quot;&gt;&lt;font&gt;3&lt;/font&gt;&lt;/sup&gt;&lt;/span&gt;" style="ellipse;whiteSpace=wrap;html=1;aspect=fixed;" parent="1" vertex="1">
          <mxGeometry x="652" y="350" width="50" height="50" as="geometry" />
        </mxCell>
        <mxCell id="_-cmMSH2O4cLz9NhAA3f-102" style="edgeStyle=none;shape=connector;rounded=0;orthogonalLoop=1;jettySize=auto;html=1;exitX=1;exitY=0.5;exitDx=0;exitDy=0;entryX=0;entryY=0.5;entryDx=0;entryDy=0;strokeColor=default;align=center;verticalAlign=middle;fontFamily=Helvetica;fontSize=11;fontColor=default;labelBackgroundColor=default;startFill=0;endArrow=classicThin;endFill=1;" parent="1" source="_-cmMSH2O4cLz9NhAA3f-50" target="_-cmMSH2O4cLz9NhAA3f-74" edge="1">
          <mxGeometry relative="1" as="geometry" />
        </mxCell>
        <mxCell id="_-cmMSH2O4cLz9NhAA3f-103" style="edgeStyle=none;shape=connector;rounded=0;orthogonalLoop=1;jettySize=auto;html=1;exitX=1;exitY=0.5;exitDx=0;exitDy=0;entryX=0;entryY=0.5;entryDx=0;entryDy=0;strokeColor=default;align=center;verticalAlign=middle;fontFamily=Helvetica;fontSize=11;fontColor=default;labelBackgroundColor=default;startFill=0;endArrow=classicThin;endFill=1;" parent="1" source="_-cmMSH2O4cLz9NhAA3f-50" target="_-cmMSH2O4cLz9NhAA3f-75" edge="1">
          <mxGeometry relative="1" as="geometry" />
        </mxCell>
        <mxCell id="_-cmMSH2O4cLz9NhAA3f-104" style="edgeStyle=none;shape=connector;rounded=0;orthogonalLoop=1;jettySize=auto;html=1;exitX=1;exitY=0.5;exitDx=0;exitDy=0;entryX=0;entryY=0.5;entryDx=0;entryDy=0;strokeColor=default;align=center;verticalAlign=middle;fontFamily=Helvetica;fontSize=11;fontColor=default;labelBackgroundColor=default;startFill=0;endArrow=classicThin;endFill=1;" parent="1" source="_-cmMSH2O4cLz9NhAA3f-50" target="_-cmMSH2O4cLz9NhAA3f-77" edge="1">
          <mxGeometry relative="1" as="geometry" />
        </mxCell>
        <mxCell id="_-cmMSH2O4cLz9NhAA3f-50" value="&lt;span style=&quot;font-family: &amp;quot;Times New Roman&amp;quot;;&quot;&gt;&lt;span style=&quot;font-size: 10px;&quot;&gt;V(1,2...t)&lt;/span&gt;&lt;sup style=&quot;&quot;&gt;&lt;font&gt;n&lt;/font&gt;&lt;/sup&gt;&lt;/span&gt;" style="ellipse;whiteSpace=wrap;html=1;aspect=fixed;" parent="1" vertex="1">
          <mxGeometry x="652" y="470" width="50" height="50" as="geometry" />
        </mxCell>
        <mxCell id="_-cmMSH2O4cLz9NhAA3f-51" value="&lt;div style=&quot;line-height: 20%;&quot;&gt;&lt;font style=&quot;font-size: 30px; line-height: 20%;&quot;&gt;.&lt;/font&gt;&lt;div&gt;&lt;font style=&quot;font-size: 30px; line-height: 20%;&quot;&gt;.&lt;/font&gt;&lt;/div&gt;&lt;div&gt;&lt;font style=&quot;font-size: 30px; line-height: 20%;&quot;&gt;.&lt;/font&gt;&lt;/div&gt;&lt;/div&gt;" style="text;html=1;align=center;verticalAlign=middle;whiteSpace=wrap;rounded=0;" parent="1" vertex="1">
          <mxGeometry x="642" y="420" width="60" height="30" as="geometry" />
        </mxCell>
        <mxCell id="_-cmMSH2O4cLz9NhAA3f-57" style="edgeStyle=orthogonalEdgeStyle;rounded=0;orthogonalLoop=1;jettySize=auto;html=1;exitX=1;exitY=0.5;exitDx=0;exitDy=0;entryX=0;entryY=0.5;entryDx=0;entryDy=0;" parent="1" source="_-cmMSH2O4cLz9NhAA3f-55" target="_-cmMSH2O4cLz9NhAA3f-48" edge="1">
          <mxGeometry relative="1" as="geometry" />
        </mxCell>
        <mxCell id="_-cmMSH2O4cLz9NhAA3f-55" value="&lt;font face=&quot;Times New Roman&quot;&gt;Gated Temporal卷积层&lt;/font&gt;" style="rounded=0;whiteSpace=wrap;html=1;fillColor=#ffe6cc;strokeColor=#d79b00;opacity=40;" parent="1" vertex="1">
          <mxGeometry x="422" y="260" width="150" height="50" as="geometry" />
        </mxCell>
        <mxCell id="_-cmMSH2O4cLz9NhAA3f-61" style="edgeStyle=orthogonalEdgeStyle;rounded=0;orthogonalLoop=1;jettySize=auto;html=1;exitX=1;exitY=0.5;exitDx=0;exitDy=0;entryX=0;entryY=0.5;entryDx=0;entryDy=0;" parent="1" source="_-cmMSH2O4cLz9NhAA3f-58" target="_-cmMSH2O4cLz9NhAA3f-49" edge="1">
          <mxGeometry relative="1" as="geometry" />
        </mxCell>
        <mxCell id="_-cmMSH2O4cLz9NhAA3f-58" value="&lt;font face=&quot;Times New Roman&quot;&gt;Gated Temporal卷积层&lt;/font&gt;" style="rounded=0;whiteSpace=wrap;html=1;fillColor=#ffe6cc;strokeColor=#d79b00;opacity=40;" parent="1" vertex="1">
          <mxGeometry x="422" y="350" width="150" height="50" as="geometry" />
        </mxCell>
        <mxCell id="_-cmMSH2O4cLz9NhAA3f-63" style="edgeStyle=orthogonalEdgeStyle;rounded=0;orthogonalLoop=1;jettySize=auto;html=1;exitX=1;exitY=0.5;exitDx=0;exitDy=0;entryX=0;entryY=0.5;entryDx=0;entryDy=0;" parent="1" source="_-cmMSH2O4cLz9NhAA3f-59" target="_-cmMSH2O4cLz9NhAA3f-50" edge="1">
          <mxGeometry relative="1" as="geometry" />
        </mxCell>
        <mxCell id="_-cmMSH2O4cLz9NhAA3f-59" value="&lt;font face=&quot;Times New Roman&quot;&gt;Gated Temporal卷积层&lt;/font&gt;" style="rounded=0;whiteSpace=wrap;html=1;fillColor=#ffe6cc;strokeColor=#d79b00;opacity=40;" parent="1" vertex="1">
          <mxGeometry x="422" y="470" width="150" height="50" as="geometry" />
        </mxCell>
        <mxCell id="_-cmMSH2O4cLz9NhAA3f-71" style="edgeStyle=orthogonalEdgeStyle;rounded=0;orthogonalLoop=1;jettySize=auto;html=1;exitX=1;exitY=0.5;exitDx=0;exitDy=0;entryX=0;entryY=0.5;entryDx=0;entryDy=0;" parent="1" source="_-cmMSH2O4cLz9NhAA3f-67" target="_-cmMSH2O4cLz9NhAA3f-70" edge="1">
          <mxGeometry relative="1" as="geometry" />
        </mxCell>
        <mxCell id="_-cmMSH2O4cLz9NhAA3f-67" value="&lt;font face=&quot;Times New Roman&quot;&gt;&lt;span style=&quot;font-size: 10px;&quot;&gt;L&lt;/span&gt;&lt;/font&gt;" style="ellipse;whiteSpace=wrap;html=1;aspect=fixed;" parent="1" vertex="1">
          <mxGeometry x="342" y="540" width="50" height="50" as="geometry" />
        </mxCell>
        <mxCell id="_-cmMSH2O4cLz9NhAA3f-105" style="edgeStyle=none;shape=connector;rounded=0;orthogonalLoop=1;jettySize=auto;html=1;exitX=1;exitY=0.5;exitDx=0;exitDy=0;entryX=0;entryY=0.5;entryDx=0;entryDy=0;strokeColor=default;align=center;verticalAlign=middle;fontFamily=Helvetica;fontSize=11;fontColor=default;labelBackgroundColor=default;startFill=0;endArrow=classicThin;endFill=1;" parent="1" source="_-cmMSH2O4cLz9NhAA3f-70" target="_-cmMSH2O4cLz9NhAA3f-75" edge="1">
          <mxGeometry relative="1" as="geometry" />
        </mxCell>
        <mxCell id="_-cmMSH2O4cLz9NhAA3f-106" style="edgeStyle=none;shape=connector;rounded=0;orthogonalLoop=1;jettySize=auto;html=1;exitX=1;exitY=0.5;exitDx=0;exitDy=0;entryX=0;entryY=0.5;entryDx=0;entryDy=0;strokeColor=default;align=center;verticalAlign=middle;fontFamily=Helvetica;fontSize=11;fontColor=default;labelBackgroundColor=default;startFill=0;endArrow=classicThin;endFill=1;" parent="1" source="_-cmMSH2O4cLz9NhAA3f-70" target="_-cmMSH2O4cLz9NhAA3f-77" edge="1">
          <mxGeometry relative="1" as="geometry" />
        </mxCell>
        <mxCell id="_-cmMSH2O4cLz9NhAA3f-140" style="edgeStyle=none;shape=connector;rounded=0;orthogonalLoop=1;jettySize=auto;html=1;exitX=1;exitY=0.5;exitDx=0;exitDy=0;entryX=0;entryY=0.5;entryDx=0;entryDy=0;strokeColor=default;align=center;verticalAlign=middle;fontFamily=Helvetica;fontSize=11;fontColor=default;labelBackgroundColor=default;startFill=0;endArrow=classicThin;endFill=1;" parent="1" source="_-cmMSH2O4cLz9NhAA3f-70" target="_-cmMSH2O4cLz9NhAA3f-74" edge="1">
          <mxGeometry relative="1" as="geometry" />
        </mxCell>
        <mxCell id="_-cmMSH2O4cLz9NhAA3f-142" style="edgeStyle=none;shape=connector;rounded=0;orthogonalLoop=1;jettySize=auto;html=1;exitX=1;exitY=0.5;exitDx=0;exitDy=0;entryX=0;entryY=0.5;entryDx=0;entryDy=0;strokeColor=default;align=center;verticalAlign=middle;fontFamily=Helvetica;fontSize=11;fontColor=default;labelBackgroundColor=default;startFill=0;endArrow=classicThin;endFill=1;" parent="1" source="_-cmMSH2O4cLz9NhAA3f-70" target="_-cmMSH2O4cLz9NhAA3f-72" edge="1">
          <mxGeometry relative="1" as="geometry" />
        </mxCell>
        <mxCell id="_-cmMSH2O4cLz9NhAA3f-70" value="&lt;font face=&quot;Times New Roman&quot;&gt;&lt;span style=&quot;font-size: 10px;&quot;&gt;L&lt;/span&gt;&lt;/font&gt;" style="ellipse;whiteSpace=wrap;html=1;aspect=fixed;" parent="1" vertex="1">
          <mxGeometry x="652" y="540" width="50" height="50" as="geometry" />
        </mxCell>
        <mxCell id="_-cmMSH2O4cLz9NhAA3f-115" style="edgeStyle=none;shape=connector;rounded=0;orthogonalLoop=1;jettySize=auto;html=1;exitX=1;exitY=0.5;exitDx=0;exitDy=0;entryX=0;entryY=0.5;entryDx=0;entryDy=0;strokeColor=default;align=center;verticalAlign=middle;fontFamily=Helvetica;fontSize=11;fontColor=default;labelBackgroundColor=default;startFill=0;endArrow=classicThin;endFill=1;" parent="1" source="_-cmMSH2O4cLz9NhAA3f-72" target="_-cmMSH2O4cLz9NhAA3f-78" edge="1">
          <mxGeometry relative="1" as="geometry" />
        </mxCell>
        <mxCell id="_-cmMSH2O4cLz9NhAA3f-116" style="edgeStyle=none;shape=connector;rounded=0;orthogonalLoop=1;jettySize=auto;html=1;exitX=1;exitY=0.5;exitDx=0;exitDy=0;entryX=0;entryY=0.5;entryDx=0;entryDy=0;strokeColor=default;align=center;verticalAlign=middle;fontFamily=Helvetica;fontSize=11;fontColor=default;labelBackgroundColor=default;startFill=0;endArrow=classicThin;endFill=1;" parent="1" source="_-cmMSH2O4cLz9NhAA3f-72" target="_-cmMSH2O4cLz9NhAA3f-79" edge="1">
          <mxGeometry relative="1" as="geometry" />
        </mxCell>
        <mxCell id="_-cmMSH2O4cLz9NhAA3f-72" value="&lt;font style=&quot;font-size: 10px;&quot; face=&quot;Times New Roman&quot;&gt;θ&lt;sub style=&quot;&quot;&gt;1&lt;/sub&gt;&lt;sup style=&quot;&quot;&gt;1&lt;/sup&gt;&lt;/font&gt;" style="ellipse;whiteSpace=wrap;html=1;aspect=fixed;" parent="1" vertex="1">
          <mxGeometry x="772" y="160" width="50" height="50" as="geometry" />
        </mxCell>
        <mxCell id="_-cmMSH2O4cLz9NhAA3f-124" style="edgeStyle=none;shape=connector;rounded=0;orthogonalLoop=1;jettySize=auto;html=1;exitX=1;exitY=0.5;exitDx=0;exitDy=0;entryX=0;entryY=0.5;entryDx=0;entryDy=0;strokeColor=default;align=center;verticalAlign=middle;fontFamily=Helvetica;fontSize=11;fontColor=default;labelBackgroundColor=default;startFill=0;endArrow=classicThin;endFill=1;" parent="1" source="_-cmMSH2O4cLz9NhAA3f-73" target="_-cmMSH2O4cLz9NhAA3f-78" edge="1">
          <mxGeometry relative="1" as="geometry" />
        </mxCell>
        <mxCell id="_-cmMSH2O4cLz9NhAA3f-125" style="edgeStyle=none;shape=connector;rounded=0;orthogonalLoop=1;jettySize=auto;html=1;exitX=1;exitY=0.5;exitDx=0;exitDy=0;entryX=0;entryY=0.5;entryDx=0;entryDy=0;strokeColor=default;align=center;verticalAlign=middle;fontFamily=Helvetica;fontSize=11;fontColor=default;labelBackgroundColor=default;startFill=0;endArrow=classicThin;endFill=1;" parent="1" source="_-cmMSH2O4cLz9NhAA3f-73" target="_-cmMSH2O4cLz9NhAA3f-79" edge="1">
          <mxGeometry relative="1" as="geometry" />
        </mxCell>
        <mxCell id="_-cmMSH2O4cLz9NhAA3f-126" style="edgeStyle=none;shape=connector;rounded=0;orthogonalLoop=1;jettySize=auto;html=1;exitX=1;exitY=0.5;exitDx=0;exitDy=0;entryX=0;entryY=0.5;entryDx=0;entryDy=0;strokeColor=default;align=center;verticalAlign=middle;fontFamily=Helvetica;fontSize=11;fontColor=default;labelBackgroundColor=default;startFill=0;endArrow=classicThin;endFill=1;" parent="1" source="_-cmMSH2O4cLz9NhAA3f-73" target="_-cmMSH2O4cLz9NhAA3f-80" edge="1">
          <mxGeometry relative="1" as="geometry" />
        </mxCell>
        <mxCell id="_-cmMSH2O4cLz9NhAA3f-73" value="&lt;font style=&quot;font-size: 10px;&quot;&gt;&lt;span style=&quot;font-family: &amp;quot;Times New Roman&amp;quot;;&quot;&gt;θ&lt;sub&gt;2&lt;/sub&gt;&lt;/span&gt;&lt;font style=&quot;&quot; face=&quot;Times New Roman&quot;&gt;&lt;sup style=&quot;&quot;&gt;2&lt;/sup&gt;&lt;/font&gt;&lt;/font&gt;" style="ellipse;whiteSpace=wrap;html=1;aspect=fixed;" parent="1" vertex="1">
          <mxGeometry x="772" y="260" width="50" height="50" as="geometry" />
        </mxCell>
        <mxCell id="_-cmMSH2O4cLz9NhAA3f-127" style="edgeStyle=none;shape=connector;rounded=0;orthogonalLoop=1;jettySize=auto;html=1;exitX=1;exitY=0.5;exitDx=0;exitDy=0;entryX=0;entryY=0.5;entryDx=0;entryDy=0;strokeColor=default;align=center;verticalAlign=middle;fontFamily=Helvetica;fontSize=11;fontColor=default;labelBackgroundColor=default;startFill=0;endArrow=classicThin;endFill=1;" parent="1" source="_-cmMSH2O4cLz9NhAA3f-74" target="_-cmMSH2O4cLz9NhAA3f-79" edge="1">
          <mxGeometry relative="1" as="geometry" />
        </mxCell>
        <mxCell id="_-cmMSH2O4cLz9NhAA3f-128" style="edgeStyle=none;shape=connector;rounded=0;orthogonalLoop=1;jettySize=auto;html=1;exitX=1;exitY=0.5;exitDx=0;exitDy=0;entryX=0;entryY=0.5;entryDx=0;entryDy=0;strokeColor=default;align=center;verticalAlign=middle;fontFamily=Helvetica;fontSize=11;fontColor=default;labelBackgroundColor=default;startFill=0;endArrow=classicThin;endFill=1;" parent="1" source="_-cmMSH2O4cLz9NhAA3f-74" target="_-cmMSH2O4cLz9NhAA3f-80" edge="1">
          <mxGeometry relative="1" as="geometry" />
        </mxCell>
        <mxCell id="_-cmMSH2O4cLz9NhAA3f-129" style="edgeStyle=none;shape=connector;rounded=0;orthogonalLoop=1;jettySize=auto;html=1;exitX=1;exitY=0.5;exitDx=0;exitDy=0;entryX=0;entryY=0.5;entryDx=0;entryDy=0;strokeColor=default;align=center;verticalAlign=middle;fontFamily=Helvetica;fontSize=11;fontColor=default;labelBackgroundColor=default;startFill=0;endArrow=classicThin;endFill=1;" parent="1" source="_-cmMSH2O4cLz9NhAA3f-74" target="_-cmMSH2O4cLz9NhAA3f-81" edge="1">
          <mxGeometry relative="1" as="geometry" />
        </mxCell>
        <mxCell id="_-cmMSH2O4cLz9NhAA3f-74" value="&lt;font style=&quot;font-size: 10px;&quot;&gt;&lt;span style=&quot;font-family: &amp;quot;Times New Roman&amp;quot;;&quot;&gt;θ&lt;/span&gt;&lt;font style=&quot;&quot; face=&quot;Times New Roman&quot;&gt;&lt;sub style=&quot;&quot;&gt;3&lt;/sub&gt;&lt;sup style=&quot;&quot;&gt;3&lt;/sup&gt;&lt;/font&gt;&lt;/font&gt;" style="ellipse;whiteSpace=wrap;html=1;aspect=fixed;" parent="1" vertex="1">
          <mxGeometry x="772" y="350" width="50" height="50" as="geometry" />
        </mxCell>
        <mxCell id="_-cmMSH2O4cLz9NhAA3f-130" style="edgeStyle=none;shape=connector;rounded=0;orthogonalLoop=1;jettySize=auto;html=1;exitX=1;exitY=0.5;exitDx=0;exitDy=0;entryX=0;entryY=0.5;entryDx=0;entryDy=0;strokeColor=default;align=center;verticalAlign=middle;fontFamily=Helvetica;fontSize=11;fontColor=default;labelBackgroundColor=default;startFill=0;endArrow=classicThin;endFill=1;" parent="1" source="_-cmMSH2O4cLz9NhAA3f-75" target="_-cmMSH2O4cLz9NhAA3f-80" edge="1">
          <mxGeometry relative="1" as="geometry" />
        </mxCell>
        <mxCell id="_-cmMSH2O4cLz9NhAA3f-131" style="edgeStyle=none;shape=connector;rounded=0;orthogonalLoop=1;jettySize=auto;html=1;exitX=1;exitY=0.5;exitDx=0;exitDy=0;entryX=0;entryY=0.5;entryDx=0;entryDy=0;strokeColor=default;align=center;verticalAlign=middle;fontFamily=Helvetica;fontSize=11;fontColor=default;labelBackgroundColor=default;startFill=0;endArrow=classicThin;endFill=1;" parent="1" source="_-cmMSH2O4cLz9NhAA3f-75" target="_-cmMSH2O4cLz9NhAA3f-81" edge="1">
          <mxGeometry relative="1" as="geometry" />
        </mxCell>
        <mxCell id="_-cmMSH2O4cLz9NhAA3f-132" style="edgeStyle=none;shape=connector;rounded=0;orthogonalLoop=1;jettySize=auto;html=1;exitX=1;exitY=0.5;exitDx=0;exitDy=0;entryX=0;entryY=0.5;entryDx=0;entryDy=0;strokeColor=default;align=center;verticalAlign=middle;fontFamily=Helvetica;fontSize=11;fontColor=default;labelBackgroundColor=default;startFill=0;endArrow=classicThin;endFill=1;" parent="1" source="_-cmMSH2O4cLz9NhAA3f-75" target="_-cmMSH2O4cLz9NhAA3f-83" edge="1">
          <mxGeometry relative="1" as="geometry" />
        </mxCell>
        <mxCell id="_-cmMSH2O4cLz9NhAA3f-75" value="&lt;font style=&quot;font-size: 10px;&quot;&gt;&lt;span style=&quot;font-family: &amp;quot;Times New Roman&amp;quot;;&quot;&gt;θ&lt;/span&gt;&lt;font style=&quot;&quot; face=&quot;Times New Roman&quot;&gt;n&lt;sup style=&quot;&quot;&gt;n&lt;/sup&gt;&lt;/font&gt;&lt;/font&gt;" style="ellipse;whiteSpace=wrap;html=1;aspect=fixed;" parent="1" vertex="1">
          <mxGeometry x="772" y="470" width="50" height="50" as="geometry" />
        </mxCell>
        <mxCell id="_-cmMSH2O4cLz9NhAA3f-76" value="&lt;div style=&quot;line-height: 20%;&quot;&gt;&lt;font style=&quot;font-size: 30px; line-height: 20%;&quot;&gt;.&lt;/font&gt;&lt;div&gt;&lt;font style=&quot;font-size: 30px; line-height: 20%;&quot;&gt;.&lt;/font&gt;&lt;/div&gt;&lt;div&gt;&lt;font style=&quot;font-size: 30px; line-height: 20%;&quot;&gt;.&lt;/font&gt;&lt;/div&gt;&lt;/div&gt;" style="text;html=1;align=center;verticalAlign=middle;whiteSpace=wrap;rounded=0;" parent="1" vertex="1">
          <mxGeometry x="772" y="420" width="60" height="30" as="geometry" />
        </mxCell>
        <mxCell id="_-cmMSH2O4cLz9NhAA3f-133" style="edgeStyle=none;shape=connector;rounded=0;orthogonalLoop=1;jettySize=auto;html=1;exitX=1;exitY=0.5;exitDx=0;exitDy=0;entryX=0;entryY=0.5;entryDx=0;entryDy=0;strokeColor=default;align=center;verticalAlign=middle;fontFamily=Helvetica;fontSize=11;fontColor=default;labelBackgroundColor=default;startFill=0;endArrow=classicThin;endFill=1;" parent="1" source="_-cmMSH2O4cLz9NhAA3f-77" target="_-cmMSH2O4cLz9NhAA3f-81" edge="1">
          <mxGeometry relative="1" as="geometry" />
        </mxCell>
        <mxCell id="_-cmMSH2O4cLz9NhAA3f-134" style="edgeStyle=none;shape=connector;rounded=0;orthogonalLoop=1;jettySize=auto;html=1;exitX=1;exitY=0.5;exitDx=0;exitDy=0;entryX=0;entryY=0.5;entryDx=0;entryDy=0;strokeColor=default;align=center;verticalAlign=middle;fontFamily=Helvetica;fontSize=11;fontColor=default;labelBackgroundColor=default;startFill=0;endArrow=classicThin;endFill=1;" parent="1" source="_-cmMSH2O4cLz9NhAA3f-77" target="_-cmMSH2O4cLz9NhAA3f-83" edge="1">
          <mxGeometry relative="1" as="geometry" />
        </mxCell>
        <mxCell id="_-cmMSH2O4cLz9NhAA3f-143" style="edgeStyle=none;shape=connector;rounded=0;orthogonalLoop=1;jettySize=auto;html=1;exitX=1;exitY=0.5;exitDx=0;exitDy=0;entryX=0;entryY=0.5;entryDx=0;entryDy=0;strokeColor=default;align=center;verticalAlign=middle;fontFamily=Helvetica;fontSize=11;fontColor=default;labelBackgroundColor=default;startFill=0;endArrow=classicThin;endFill=1;" parent="1" source="_-cmMSH2O4cLz9NhAA3f-77" target="_-cmMSH2O4cLz9NhAA3f-78" edge="1">
          <mxGeometry relative="1" as="geometry" />
        </mxCell>
        <mxCell id="_-cmMSH2O4cLz9NhAA3f-144" style="edgeStyle=none;shape=connector;rounded=0;orthogonalLoop=1;jettySize=auto;html=1;exitX=1;exitY=0.5;exitDx=0;exitDy=0;entryX=0;entryY=0.5;entryDx=0;entryDy=0;strokeColor=default;align=center;verticalAlign=middle;fontFamily=Helvetica;fontSize=11;fontColor=default;labelBackgroundColor=default;startFill=0;endArrow=classicThin;endFill=1;" parent="1" source="_-cmMSH2O4cLz9NhAA3f-77" target="_-cmMSH2O4cLz9NhAA3f-79" edge="1">
          <mxGeometry relative="1" as="geometry" />
        </mxCell>
        <mxCell id="_-cmMSH2O4cLz9NhAA3f-145" style="edgeStyle=none;shape=connector;rounded=0;orthogonalLoop=1;jettySize=auto;html=1;exitX=1;exitY=0.5;exitDx=0;exitDy=0;entryX=0;entryY=0.5;entryDx=0;entryDy=0;strokeColor=default;align=center;verticalAlign=middle;fontFamily=Helvetica;fontSize=11;fontColor=default;labelBackgroundColor=default;startFill=0;endArrow=classicThin;endFill=1;" parent="1" source="_-cmMSH2O4cLz9NhAA3f-77" target="_-cmMSH2O4cLz9NhAA3f-80" edge="1">
          <mxGeometry relative="1" as="geometry" />
        </mxCell>
        <mxCell id="_-cmMSH2O4cLz9NhAA3f-77" value="&lt;font face=&quot;Times New Roman&quot;&gt;&lt;span style=&quot;font-size: 10px;&quot;&gt;L&lt;/span&gt;&lt;/font&gt;" style="ellipse;whiteSpace=wrap;html=1;aspect=fixed;" parent="1" vertex="1">
          <mxGeometry x="772" y="540" width="50" height="50" as="geometry" />
        </mxCell>
        <mxCell id="bLHYIjg8J8-4rdijZC2Z-8" style="edgeStyle=orthogonalEdgeStyle;rounded=0;orthogonalLoop=1;jettySize=auto;html=1;exitX=1;exitY=0.5;exitDx=0;exitDy=0;entryX=0;entryY=0.5;entryDx=0;entryDy=0;" edge="1" parent="1" source="_-cmMSH2O4cLz9NhAA3f-78" target="bLHYIjg8J8-4rdijZC2Z-3">
          <mxGeometry relative="1" as="geometry" />
        </mxCell>
        <mxCell id="_-cmMSH2O4cLz9NhAA3f-78" value="&lt;span style=&quot;font-family: &amp;quot;Times New Roman&amp;quot;; font-size: 10px;&quot;&gt;V(1,2...t)&lt;/span&gt;&lt;font face=&quot;Times New Roman&quot;&gt;&lt;span style=&quot;font-size: 10px;&quot;&gt;&lt;sup&gt;1&lt;/sup&gt;&lt;/span&gt;&lt;/font&gt;" style="ellipse;whiteSpace=wrap;html=1;aspect=fixed;" parent="1" vertex="1">
          <mxGeometry x="906" y="160" width="50" height="50" as="geometry" />
        </mxCell>
        <mxCell id="bLHYIjg8J8-4rdijZC2Z-9" style="edgeStyle=orthogonalEdgeStyle;rounded=0;orthogonalLoop=1;jettySize=auto;html=1;exitX=1;exitY=0.5;exitDx=0;exitDy=0;entryX=0;entryY=0.5;entryDx=0;entryDy=0;" edge="1" parent="1" source="_-cmMSH2O4cLz9NhAA3f-79" target="bLHYIjg8J8-4rdijZC2Z-4">
          <mxGeometry relative="1" as="geometry" />
        </mxCell>
        <mxCell id="_-cmMSH2O4cLz9NhAA3f-79" value="&lt;span style=&quot;font-family: &amp;quot;Times New Roman&amp;quot;; font-size: 10px;&quot;&gt;V(1,2...t)&lt;/span&gt;&lt;sup style=&quot;font-family: &amp;quot;Times New Roman&amp;quot;;&quot;&gt;2&lt;/sup&gt;" style="ellipse;whiteSpace=wrap;html=1;aspect=fixed;" parent="1" vertex="1">
          <mxGeometry x="906" y="260" width="50" height="50" as="geometry" />
        </mxCell>
        <mxCell id="bLHYIjg8J8-4rdijZC2Z-10" style="edgeStyle=orthogonalEdgeStyle;rounded=0;orthogonalLoop=1;jettySize=auto;html=1;exitX=1;exitY=0.5;exitDx=0;exitDy=0;entryX=0;entryY=0.5;entryDx=0;entryDy=0;" edge="1" parent="1" source="_-cmMSH2O4cLz9NhAA3f-80" target="bLHYIjg8J8-4rdijZC2Z-5">
          <mxGeometry relative="1" as="geometry" />
        </mxCell>
        <mxCell id="_-cmMSH2O4cLz9NhAA3f-80" value="&lt;span style=&quot;font-family: &amp;quot;Times New Roman&amp;quot;; font-size: 10px;&quot;&gt;V(1,2...t)&lt;/span&gt;&lt;span style=&quot;font-family: &amp;quot;Times New Roman&amp;quot;;&quot;&gt;&lt;sup&gt;3&lt;/sup&gt;&lt;/span&gt;" style="ellipse;whiteSpace=wrap;html=1;aspect=fixed;" parent="1" vertex="1">
          <mxGeometry x="906" y="350" width="50" height="50" as="geometry" />
        </mxCell>
        <mxCell id="bLHYIjg8J8-4rdijZC2Z-11" style="edgeStyle=orthogonalEdgeStyle;rounded=0;orthogonalLoop=1;jettySize=auto;html=1;exitX=1;exitY=0.5;exitDx=0;exitDy=0;entryX=0;entryY=0.5;entryDx=0;entryDy=0;" edge="1" parent="1" source="_-cmMSH2O4cLz9NhAA3f-81" target="bLHYIjg8J8-4rdijZC2Z-6">
          <mxGeometry relative="1" as="geometry" />
        </mxCell>
        <mxCell id="_-cmMSH2O4cLz9NhAA3f-81" value="&lt;span style=&quot;font-family: &amp;quot;Times New Roman&amp;quot;; font-size: 10px;&quot;&gt;V(1,2...t)&lt;/span&gt;&lt;sup style=&quot;font-family: &amp;quot;Times New Roman&amp;quot;;&quot;&gt;n&lt;/sup&gt;" style="ellipse;whiteSpace=wrap;html=1;aspect=fixed;" parent="1" vertex="1">
          <mxGeometry x="906" y="470" width="50" height="50" as="geometry" />
        </mxCell>
        <mxCell id="_-cmMSH2O4cLz9NhAA3f-82" value="&lt;div style=&quot;line-height: 20%;&quot;&gt;&lt;font style=&quot;font-size: 30px; line-height: 20%;&quot;&gt;.&lt;/font&gt;&lt;div&gt;&lt;font style=&quot;font-size: 30px; line-height: 20%;&quot;&gt;.&lt;/font&gt;&lt;/div&gt;&lt;div&gt;&lt;font style=&quot;font-size: 30px; line-height: 20%;&quot;&gt;.&lt;/font&gt;&lt;/div&gt;&lt;/div&gt;" style="text;html=1;align=center;verticalAlign=middle;whiteSpace=wrap;rounded=0;" parent="1" vertex="1">
          <mxGeometry x="896" y="420" width="60" height="30" as="geometry" />
        </mxCell>
        <mxCell id="bLHYIjg8J8-4rdijZC2Z-21" style="edgeStyle=orthogonalEdgeStyle;rounded=0;orthogonalLoop=1;jettySize=auto;html=1;exitX=1;exitY=0.5;exitDx=0;exitDy=0;entryX=0;entryY=0.5;entryDx=0;entryDy=0;" edge="1" parent="1" source="_-cmMSH2O4cLz9NhAA3f-83" target="_-cmMSH2O4cLz9NhAA3f-199">
          <mxGeometry relative="1" as="geometry" />
        </mxCell>
        <mxCell id="_-cmMSH2O4cLz9NhAA3f-83" value="&lt;font face=&quot;Times New Roman&quot;&gt;&lt;span style=&quot;font-size: 10px;&quot;&gt;L&lt;/span&gt;&lt;/font&gt;" style="ellipse;whiteSpace=wrap;html=1;aspect=fixed;" parent="1" vertex="1">
          <mxGeometry x="906" y="540" width="50" height="50" as="geometry" />
        </mxCell>
        <mxCell id="_-cmMSH2O4cLz9NhAA3f-164" value="&lt;font style=&quot;font-size: 10px;&quot;&gt;&lt;font style=&quot;&quot; face=&quot;Times New Roman&quot;&gt;V(1,2...t)&lt;/font&gt;&lt;font style=&quot;&quot; face=&quot;Times New Roman&quot;&gt;&lt;sup style=&quot;&quot;&gt;2&lt;/sup&gt;&lt;/font&gt;&lt;/font&gt;" style="ellipse;whiteSpace=wrap;html=1;aspect=fixed;" parent="1" vertex="1">
          <mxGeometry x="342" y="260" width="50" height="50" as="geometry" />
        </mxCell>
        <mxCell id="_-cmMSH2O4cLz9NhAA3f-167" value="&lt;font style=&quot;font-size: 10px;&quot; face=&quot;Times New Roman&quot;&gt;V(1,2...t)&lt;sup style=&quot;&quot;&gt;3&lt;/sup&gt;&lt;/font&gt;" style="ellipse;whiteSpace=wrap;html=1;aspect=fixed;" parent="1" vertex="1">
          <mxGeometry x="342" y="350" width="50" height="50" as="geometry" />
        </mxCell>
        <mxCell id="_-cmMSH2O4cLz9NhAA3f-168" value="&lt;font style=&quot;font-size: 10px;&quot; face=&quot;Times New Roman&quot;&gt;V(1,2...t)&lt;sup style=&quot;&quot;&gt;n&lt;/sup&gt;&lt;/font&gt;" style="ellipse;whiteSpace=wrap;html=1;aspect=fixed;" parent="1" vertex="1">
          <mxGeometry x="342" y="470" width="50" height="50" as="geometry" />
        </mxCell>
        <mxCell id="_-cmMSH2O4cLz9NhAA3f-194" value="&lt;span style=&quot;font-family: &amp;quot;Times New Roman&amp;quot;; font-size: 10px;&quot;&gt;y(1,2...t)&lt;/span&gt;&lt;font face=&quot;Times New Roman&quot;&gt;&lt;span style=&quot;font-size: 10px;&quot;&gt;&lt;sup&gt;1&lt;/sup&gt;&lt;/span&gt;&lt;/font&gt;" style="ellipse;whiteSpace=wrap;html=1;aspect=fixed;" parent="1" vertex="1">
          <mxGeometry x="1232" y="160" width="50" height="50" as="geometry" />
        </mxCell>
        <mxCell id="_-cmMSH2O4cLz9NhAA3f-195" value="&lt;span style=&quot;font-family: &amp;quot;Times New Roman&amp;quot;; font-size: 10px;&quot;&gt;y(1,2...t)&lt;/span&gt;&lt;sup style=&quot;font-family: &amp;quot;Times New Roman&amp;quot;;&quot;&gt;2&lt;/sup&gt;" style="ellipse;whiteSpace=wrap;html=1;aspect=fixed;" parent="1" vertex="1">
          <mxGeometry x="1232" y="260" width="50" height="50" as="geometry" />
        </mxCell>
        <mxCell id="_-cmMSH2O4cLz9NhAA3f-196" value="&lt;span style=&quot;font-family: &amp;quot;Times New Roman&amp;quot;; font-size: 10px;&quot;&gt;y(1,2...t)&lt;/span&gt;&lt;span style=&quot;font-family: &amp;quot;Times New Roman&amp;quot;;&quot;&gt;&lt;sup&gt;3&lt;/sup&gt;&lt;/span&gt;" style="ellipse;whiteSpace=wrap;html=1;aspect=fixed;" parent="1" vertex="1">
          <mxGeometry x="1232" y="350" width="50" height="50" as="geometry" />
        </mxCell>
        <mxCell id="_-cmMSH2O4cLz9NhAA3f-197" value="&lt;span style=&quot;font-family: &amp;quot;Times New Roman&amp;quot;; font-size: 10px;&quot;&gt;y(1,2...t)&lt;/span&gt;&lt;sup style=&quot;font-family: &amp;quot;Times New Roman&amp;quot;;&quot;&gt;n&lt;/sup&gt;" style="ellipse;whiteSpace=wrap;html=1;aspect=fixed;" parent="1" vertex="1">
          <mxGeometry x="1232" y="470" width="50" height="50" as="geometry" />
        </mxCell>
        <mxCell id="_-cmMSH2O4cLz9NhAA3f-198" value="&lt;div style=&quot;line-height: 20%;&quot;&gt;&lt;font style=&quot;font-size: 30px; line-height: 20%;&quot;&gt;.&lt;/font&gt;&lt;div&gt;&lt;font style=&quot;font-size: 30px; line-height: 20%;&quot;&gt;.&lt;/font&gt;&lt;/div&gt;&lt;div&gt;&lt;font style=&quot;font-size: 30px; line-height: 20%;&quot;&gt;.&lt;/font&gt;&lt;/div&gt;&lt;/div&gt;" style="text;html=1;align=center;verticalAlign=middle;whiteSpace=wrap;rounded=0;" parent="1" vertex="1">
          <mxGeometry x="1222" y="420" width="60" height="30" as="geometry" />
        </mxCell>
        <mxCell id="_-cmMSH2O4cLz9NhAA3f-199" value="&lt;font face=&quot;Times New Roman&quot;&gt;&lt;span style=&quot;font-size: 10px;&quot;&gt;L&lt;/span&gt;&lt;/font&gt;" style="ellipse;whiteSpace=wrap;html=1;aspect=fixed;" parent="1" vertex="1">
          <mxGeometry x="1232" y="540" width="50" height="50" as="geometry" />
        </mxCell>
        <mxCell id="_-cmMSH2O4cLz9NhAA3f-218" value="&lt;span style=&quot;font-family: &amp;quot;Times New Roman&amp;quot;; font-size: 12px; background-color: rgb(251, 251, 251);&quot;&gt;读取时间上的特征&lt;/span&gt;" style="rounded=0;whiteSpace=wrap;html=1;fontFamily=Helvetica;fontSize=11;fontColor=default;labelBackgroundColor=default;" parent="1" vertex="1">
          <mxGeometry x="332" y="60" width="260" height="30" as="geometry" />
        </mxCell>
        <mxCell id="_-cmMSH2O4cLz9NhAA3f-219" value="&lt;span style=&quot;color: rgb(0, 0, 0); font-family: Helvetica; font-style: normal; font-variant-ligatures: normal; font-variant-caps: normal; font-weight: 400; letter-spacing: normal; orphans: 2; text-align: center; text-indent: 0px; text-transform: none; widows: 2; word-spacing: 0px; -webkit-text-stroke-width: 0px; white-space: normal; background-color: rgb(251, 251, 251); text-decoration-thickness: initial; text-decoration-style: initial; text-decoration-color: initial; float: none; display: inline !important;&quot;&gt;&lt;font style=&quot;font-size: 12px;&quot;&gt;要素输入&lt;/font&gt;&lt;/span&gt;" style="rounded=0;whiteSpace=wrap;html=1;fontFamily=Helvetica;fontSize=11;fontColor=default;labelBackgroundColor=default;" parent="1" vertex="1">
          <mxGeometry x="142" y="60" width="130" height="30" as="geometry" />
        </mxCell>
        <mxCell id="_-cmMSH2O4cLz9NhAA3f-220" value="&lt;span style=&quot;font-size: 12px;&quot;&gt;相邻结点图卷积&lt;/span&gt;" style="rounded=0;whiteSpace=wrap;html=1;fontFamily=Helvetica;fontSize=11;fontColor=default;labelBackgroundColor=default;" parent="1" vertex="1">
          <mxGeometry x="642" y="60" width="200" height="30" as="geometry" />
        </mxCell>
        <mxCell id="_-cmMSH2O4cLz9NhAA3f-221" value="&lt;span style=&quot;font-family: &amp;quot;Times New Roman&amp;quot;; font-size: 12px; background-color: rgb(251, 251, 251);&quot;&gt;读取时间上的特征&lt;/span&gt;" style="rounded=0;whiteSpace=wrap;html=1;fontFamily=Helvetica;fontSize=11;fontColor=default;labelBackgroundColor=default;" parent="1" vertex="1">
          <mxGeometry x="892" y="60" width="260" height="30" as="geometry" />
        </mxCell>
        <mxCell id="_-cmMSH2O4cLz9NhAA3f-222" value="&lt;span style=&quot;font-family: &amp;quot;Times New Roman&amp;quot;; font-size: 12px; background-color: rgb(251, 251, 251);&quot;&gt;结果输出&lt;/span&gt;" style="rounded=0;whiteSpace=wrap;html=1;fontFamily=Helvetica;fontSize=11;fontColor=default;labelBackgroundColor=default;" parent="1" vertex="1">
          <mxGeometry x="1200" y="60" width="100" height="30" as="geometry" />
        </mxCell>
        <mxCell id="_-cmMSH2O4cLz9NhAA3f-223" value="" style="triangle;whiteSpace=wrap;html=1;fontFamily=Helvetica;fontSize=11;fontColor=default;labelBackgroundColor=default;" parent="1" vertex="1">
          <mxGeometry x="602" y="60" width="30" height="30" as="geometry" />
        </mxCell>
        <mxCell id="_-cmMSH2O4cLz9NhAA3f-225" value="" style="triangle;whiteSpace=wrap;html=1;fontFamily=Helvetica;fontSize=11;fontColor=default;labelBackgroundColor=default;" parent="1" vertex="1">
          <mxGeometry x="853" y="60" width="30" height="30" as="geometry" />
        </mxCell>
        <mxCell id="_-cmMSH2O4cLz9NhAA3f-226" value="" style="triangle;whiteSpace=wrap;html=1;fontFamily=Helvetica;fontSize=11;fontColor=default;labelBackgroundColor=default;" parent="1" vertex="1">
          <mxGeometry x="1160" y="60" width="30" height="30" as="geometry" />
        </mxCell>
        <mxCell id="_-cmMSH2O4cLz9NhAA3f-230" value="&lt;span style=&quot;font-family: &amp;quot;Times New Roman&amp;quot;; font-size: 12px; background-color: rgb(251, 251, 251);&quot;&gt;时间权重调整&lt;/span&gt;" style="rounded=0;whiteSpace=wrap;html=1;fontFamily=Helvetica;fontSize=11;fontColor=default;labelBackgroundColor=default;" parent="1" vertex="1">
          <mxGeometry x="332" y="610" width="260" height="30" as="geometry" />
        </mxCell>
        <mxCell id="_-cmMSH2O4cLz9NhAA3f-231" value="&lt;span style=&quot;font-size: 12px; background-color: rgb(251, 251, 251);&quot;&gt;输入调整&lt;/span&gt;" style="rounded=0;whiteSpace=wrap;html=1;fontFamily=Helvetica;fontSize=11;fontColor=default;labelBackgroundColor=default;" parent="1" vertex="1">
          <mxGeometry x="142" y="610" width="130" height="30" as="geometry" />
        </mxCell>
        <mxCell id="_-cmMSH2O4cLz9NhAA3f-232" value="&lt;span style=&quot;font-size: 12px;&quot;&gt;空间权重调整&lt;/span&gt;" style="rounded=0;whiteSpace=wrap;html=1;fontFamily=Helvetica;fontSize=11;fontColor=default;labelBackgroundColor=default;" parent="1" vertex="1">
          <mxGeometry x="642" y="610" width="200" height="30" as="geometry" />
        </mxCell>
        <mxCell id="_-cmMSH2O4cLz9NhAA3f-233" value="&lt;span style=&quot;font-family: &amp;quot;Times New Roman&amp;quot;; font-size: 12px; background-color: rgb(251, 251, 251);&quot;&gt;时间权重调整&lt;/span&gt;" style="rounded=0;whiteSpace=wrap;html=1;fontFamily=Helvetica;fontSize=11;fontColor=default;labelBackgroundColor=default;" parent="1" vertex="1">
          <mxGeometry x="892" y="610" width="260" height="30" as="geometry" />
        </mxCell>
        <mxCell id="_-cmMSH2O4cLz9NhAA3f-234" value="&lt;font face=&quot;Times New Roman&quot;&gt;&lt;span style=&quot;font-size: 12px; background-color: rgb(251, 251, 251);&quot;&gt;损失函数修正&lt;/span&gt;&lt;/font&gt;" style="rounded=0;whiteSpace=wrap;html=1;fontFamily=Helvetica;fontSize=11;fontColor=default;labelBackgroundColor=default;" parent="1" vertex="1">
          <mxGeometry x="1200" y="610" width="100" height="30" as="geometry" />
        </mxCell>
        <mxCell id="_-cmMSH2O4cLz9NhAA3f-235" value="" style="triangle;whiteSpace=wrap;html=1;fontFamily=Helvetica;fontSize=11;fontColor=default;labelBackgroundColor=default;rotation=-180;" parent="1" vertex="1">
          <mxGeometry x="282" y="610" width="30" height="30" as="geometry" />
        </mxCell>
        <mxCell id="_-cmMSH2O4cLz9NhAA3f-236" value="" style="triangle;whiteSpace=wrap;html=1;fontFamily=Helvetica;fontSize=11;fontColor=default;labelBackgroundColor=default;rotation=-180;" parent="1" vertex="1">
          <mxGeometry x="602" y="610" width="30" height="30" as="geometry" />
        </mxCell>
        <mxCell id="_-cmMSH2O4cLz9NhAA3f-237" value="" style="triangle;whiteSpace=wrap;html=1;fontFamily=Helvetica;fontSize=11;fontColor=default;labelBackgroundColor=default;rotation=-180;" parent="1" vertex="1">
          <mxGeometry x="849" y="610" width="30" height="30" as="geometry" />
        </mxCell>
        <mxCell id="_-cmMSH2O4cLz9NhAA3f-238" value="" style="triangle;whiteSpace=wrap;html=1;fontFamily=Helvetica;fontSize=11;fontColor=default;labelBackgroundColor=default;rotation=-180;" parent="1" vertex="1">
          <mxGeometry x="1160" y="610" width="30" height="30" as="geometry" />
        </mxCell>
        <mxCell id="_-cmMSH2O4cLz9NhAA3f-245" value="&lt;font style=&quot;font-size: 15px;&quot;&gt;规划最短路&lt;/font&gt;" style="text;html=1;align=center;verticalAlign=middle;whiteSpace=wrap;rounded=0;" parent="1" vertex="1">
          <mxGeometry x="1588.5" y="368" width="81" height="30" as="geometry" />
        </mxCell>
        <mxCell id="tCSOFyDIzmeTxJanoV6C-35" style="edgeStyle=orthogonalEdgeStyle;rounded=0;orthogonalLoop=1;jettySize=auto;html=1;exitX=1;exitY=0.5;exitDx=0;exitDy=0;entryX=0;entryY=0.5;entryDx=0;entryDy=0;" parent="1" source="tCSOFyDIzmeTxJanoV6C-41" target="tCSOFyDIzmeTxJanoV6C-40" edge="1">
          <mxGeometry relative="1" as="geometry">
            <mxPoint x="362.5" y="186.5" as="sourcePoint" />
          </mxGeometry>
        </mxCell>
        <mxCell id="tCSOFyDIzmeTxJanoV6C-36" style="edgeStyle=none;shape=connector;rounded=0;orthogonalLoop=1;jettySize=auto;html=1;exitX=1;exitY=0.5;exitDx=0;exitDy=0;entryX=0;entryY=0.5;entryDx=0;entryDy=0;strokeColor=default;align=center;verticalAlign=middle;fontFamily=Helvetica;fontSize=11;fontColor=default;labelBackgroundColor=default;startFill=0;endArrow=classicThin;endFill=1;" parent="1" source="tCSOFyDIzmeTxJanoV6C-37" target="tCSOFyDIzmeTxJanoV6C-41" edge="1">
          <mxGeometry relative="1" as="geometry" />
        </mxCell>
        <mxCell id="tCSOFyDIzmeTxJanoV6C-37" value="&lt;div&gt;&lt;font style=&quot;font-family: &amp;quot;Times New Roman&amp;quot;; background-color: transparent; color: light-dark(rgb(0, 0, 0), rgb(255, 255, 255));&quot;&gt;x&lt;sub&gt;1&lt;/sub&gt;&lt;/font&gt;&lt;span style=&quot;font-family: &amp;quot;Times New Roman&amp;quot;; background-color: transparent; color: light-dark(rgb(0, 0, 0), rgb(255, 255, 255));&quot;&gt;个体的行为特征&lt;/span&gt;&lt;/div&gt;" style="text;html=1;align=center;verticalAlign=middle;whiteSpace=wrap;rounded=0;" parent="1" vertex="1">
          <mxGeometry x="152" y="170" width="100" height="30" as="geometry" />
        </mxCell>
        <mxCell id="tCSOFyDIzmeTxJanoV6C-38" value="&lt;span style=&quot;font-family: &amp;quot;Times New Roman&amp;quot;; font-size: 10px;&quot;&gt;V(1,2...t)&lt;sup&gt;2&lt;/sup&gt;&lt;/span&gt;" style="ellipse;whiteSpace=wrap;html=1;aspect=fixed;" parent="1" vertex="1">
          <mxGeometry x="652" y="160" width="50" height="50" as="geometry" />
        </mxCell>
        <mxCell id="tCSOFyDIzmeTxJanoV6C-39" style="edgeStyle=orthogonalEdgeStyle;rounded=0;orthogonalLoop=1;jettySize=auto;html=1;exitX=1;exitY=0.5;exitDx=0;exitDy=0;entryX=0;entryY=0.5;entryDx=0;entryDy=0;" parent="1" source="tCSOFyDIzmeTxJanoV6C-40" target="tCSOFyDIzmeTxJanoV6C-38" edge="1">
          <mxGeometry relative="1" as="geometry" />
        </mxCell>
        <mxCell id="tCSOFyDIzmeTxJanoV6C-40" value="&lt;font face=&quot;Times New Roman&quot;&gt;Gated Temporal卷积层&lt;/font&gt;" style="rounded=0;whiteSpace=wrap;html=1;fillColor=#ffe6cc;strokeColor=#d79b00;opacity=40;" parent="1" vertex="1">
          <mxGeometry x="422" y="160" width="150" height="50" as="geometry" />
        </mxCell>
        <mxCell id="tCSOFyDIzmeTxJanoV6C-41" value="&lt;font style=&quot;font-size: 10px;&quot;&gt;&lt;font style=&quot;&quot; face=&quot;Times New Roman&quot;&gt;V(1,2...t)&lt;/font&gt;&lt;font style=&quot;&quot; face=&quot;Times New Roman&quot;&gt;&lt;sup style=&quot;&quot;&gt;1&lt;/sup&gt;&lt;/font&gt;&lt;/font&gt;" style="ellipse;whiteSpace=wrap;html=1;aspect=fixed;" parent="1" vertex="1">
          <mxGeometry x="342" y="160" width="50" height="50" as="geometry" />
        </mxCell>
        <mxCell id="bLHYIjg8J8-4rdijZC2Z-1" value="" style="triangle;whiteSpace=wrap;html=1;fontFamily=Helvetica;fontSize=11;fontColor=default;labelBackgroundColor=default;" vertex="1" parent="1">
          <mxGeometry x="282" y="60" width="30" height="30" as="geometry" />
        </mxCell>
        <mxCell id="bLHYIjg8J8-4rdijZC2Z-17" style="edgeStyle=orthogonalEdgeStyle;rounded=0;orthogonalLoop=1;jettySize=auto;html=1;exitX=1;exitY=0.5;exitDx=0;exitDy=0;entryX=0;entryY=0.5;entryDx=0;entryDy=0;" edge="1" parent="1" source="bLHYIjg8J8-4rdijZC2Z-3" target="_-cmMSH2O4cLz9NhAA3f-194">
          <mxGeometry relative="1" as="geometry" />
        </mxCell>
        <mxCell id="bLHYIjg8J8-4rdijZC2Z-3" value="&lt;font face=&quot;Times New Roman&quot;&gt;Gated Temporal卷积层&lt;/font&gt;" style="rounded=0;whiteSpace=wrap;html=1;fillColor=#ffe6cc;strokeColor=#d79b00;opacity=40;" vertex="1" parent="1">
          <mxGeometry x="995" y="160" width="150" height="50" as="geometry" />
        </mxCell>
        <mxCell id="bLHYIjg8J8-4rdijZC2Z-18" style="edgeStyle=orthogonalEdgeStyle;rounded=0;orthogonalLoop=1;jettySize=auto;html=1;exitX=1;exitY=0.5;exitDx=0;exitDy=0;entryX=0;entryY=0.5;entryDx=0;entryDy=0;" edge="1" parent="1" source="bLHYIjg8J8-4rdijZC2Z-4" target="_-cmMSH2O4cLz9NhAA3f-195">
          <mxGeometry relative="1" as="geometry" />
        </mxCell>
        <mxCell id="bLHYIjg8J8-4rdijZC2Z-4" value="&lt;font face=&quot;Times New Roman&quot;&gt;Gated Temporal卷积层&lt;/font&gt;" style="rounded=0;whiteSpace=wrap;html=1;fillColor=#ffe6cc;strokeColor=#d79b00;opacity=40;" vertex="1" parent="1">
          <mxGeometry x="995" y="260" width="150" height="50" as="geometry" />
        </mxCell>
        <mxCell id="bLHYIjg8J8-4rdijZC2Z-19" style="edgeStyle=orthogonalEdgeStyle;rounded=0;orthogonalLoop=1;jettySize=auto;html=1;exitX=1;exitY=0.5;exitDx=0;exitDy=0;entryX=0;entryY=0.5;entryDx=0;entryDy=0;" edge="1" parent="1" source="bLHYIjg8J8-4rdijZC2Z-5" target="_-cmMSH2O4cLz9NhAA3f-196">
          <mxGeometry relative="1" as="geometry" />
        </mxCell>
        <mxCell id="bLHYIjg8J8-4rdijZC2Z-5" value="&lt;font face=&quot;Times New Roman&quot;&gt;Gated Temporal卷积层&lt;/font&gt;" style="rounded=0;whiteSpace=wrap;html=1;fillColor=#ffe6cc;strokeColor=#d79b00;opacity=40;" vertex="1" parent="1">
          <mxGeometry x="995" y="350" width="150" height="50" as="geometry" />
        </mxCell>
        <mxCell id="bLHYIjg8J8-4rdijZC2Z-20" style="edgeStyle=orthogonalEdgeStyle;rounded=0;orthogonalLoop=1;jettySize=auto;html=1;exitX=1;exitY=0.5;exitDx=0;exitDy=0;entryX=0;entryY=0.5;entryDx=0;entryDy=0;" edge="1" parent="1" source="bLHYIjg8J8-4rdijZC2Z-6" target="_-cmMSH2O4cLz9NhAA3f-197">
          <mxGeometry relative="1" as="geometry" />
        </mxCell>
        <mxCell id="bLHYIjg8J8-4rdijZC2Z-6" value="&lt;font face=&quot;Times New Roman&quot;&gt;Gated Temporal卷积层&lt;/font&gt;" style="rounded=0;whiteSpace=wrap;html=1;fillColor=#ffe6cc;strokeColor=#d79b00;opacity=40;" vertex="1" parent="1">
          <mxGeometry x="995" y="470" width="150" height="50" as="geometry" />
        </mxCell>
        <mxCell id="bLHYIjg8J8-4rdijZC2Z-14" value="模型推理过程" style="text;html=1;align=center;verticalAlign=middle;whiteSpace=wrap;rounded=0;" vertex="1" parent="1">
          <mxGeometry x="30" y="60" width="80" height="30" as="geometry" />
        </mxCell>
        <mxCell id="bLHYIjg8J8-4rdijZC2Z-15" value="模型训练过程" style="text;html=1;align=center;verticalAlign=middle;whiteSpace=wrap;rounded=0;" vertex="1" parent="1">
          <mxGeometry x="30" y="610" width="80" height="30" as="geometry" />
        </mxCell>
        <mxCell id="bLHYIjg8J8-4rdijZC2Z-16" value="模型内部细节" style="text;html=1;align=center;verticalAlign=middle;whiteSpace=wrap;rounded=0;" vertex="1" parent="1">
          <mxGeometry x="30" y="310" width="80" height="30" as="geometry" />
        </mxCell>
      </root>
    </mxGraphModel>
  </diagram>
</mxfile>
